<svg xmlns="http://www.w3.org/2000/svg" width="1280" height="760" viewBox="0 0 1280 760" role="img" aria-labelledby="title desc">
  <title id="title">Solar Load Split Discovery</title>
  <desc id="desc">Mockup mehrerer entdeckter Solar-Load-Split-Geraete in Home Assistant.</desc>
  <rect width="1280" height="760" rx="28" fill="#111315"/>
  <text x="70" y="88" fill="#e8eaed" font-family="Arial, Helvetica, sans-serif" font-size="36" font-weight="700">Entdeckte Geraete</text>
  <text x="70" y="126" fill="#aeb4ba" font-family="Arial, Helvetica, sans-serif" font-size="20">Solar Load Split legt pro passendem Leistungssensor einen Vorschlag an.</text>

  <g transform="translate(70 172)">
    <rect width="530" height="190" rx="20" fill="#1b1d1f" stroke="#3a3d40" stroke-width="2"/>
    <circle cx="72" cy="76" r="34" fill="#f6b42a"/>
    <path d="M72 36v-20M72 116v20M32 76H12M112 76h20" stroke="#f6b42a" stroke-width="8" stroke-linecap="round"/>
    <text x="128" y="64" fill="#e8eaed" font-family="Arial, Helvetica, sans-serif" font-size="26" font-weight="700">Solar Load Split</text>
    <text x="128" y="100" fill="#c9ced3" font-family="Arial, Helvetica, sans-serif" font-size="22">PV Flachdach Gesamtertrag</text>
    <rect x="310" y="124" width="166" height="48" rx="24" fill="#0097b8"/>
    <text x="350" y="156" fill="#fff" font-family="Arial, Helvetica, sans-serif" font-size="20" font-weight="700">Hinzufuegen</text>
  </g>

  <g transform="translate(680 172)">
    <rect width="530" height="190" rx="20" fill="#1b1d1f" stroke="#3a3d40" stroke-width="2"/>
    <circle cx="72" cy="76" r="34" fill="#1fb6a6"/>
    <path d="M40 100h72l-10 30H30z" fill="#126d7a"/>
    <text x="128" y="64" fill="#e8eaed" font-family="Arial, Helvetica, sans-serif" font-size="26" font-weight="700">Solar Load Split</text>
    <text x="128" y="100" fill="#c9ced3" font-family="Arial, Helvetica, sans-serif" font-size="22">Waermepumpe Leistung</text>
    <rect x="310" y="124" width="166" height="48" rx="24" fill="#0097b8"/>
    <text x="350" y="156" fill="#fff" font-family="Arial, Helvetica, sans-serif" font-size="20" font-weight="700">Hinzufuegen</text>
  </g>

  <g transform="translate(70 420)">
    <rect width="530" height="190" rx="20" fill="#1b1d1f" stroke="#3a3d40" stroke-width="2"/>
    <circle cx="72" cy="76" r="34" fill="#45c96f"/>
    <path d="M54 104h36v36H54zM48 104l24-28 24 28" fill="#18884f"/>
    <text x="128" y="64" fill="#e8eaed" font-family="Arial, Helvetica, sans-serif" font-size="26" font-weight="700">Solar Load Split</text>
    <text x="128" y="100" fill="#c9ced3" font-family="Arial, Helvetica, sans-serif" font-size="22">Wallbox Leistung</text>
    <rect x="310" y="124" width="166" height="48" rx="24" fill="#0097b8"/>
    <text x="350" y="156" fill="#fff" font-family="Arial, Helvetica, sans-serif" font-size="20" font-weight="700">Hinzufuegen</text>
  </g>

  <g transform="translate(680 420)">
    <rect width="530" height="190" rx="20" fill="#1b1d1f" stroke="#3a3d40" stroke-width="2"/>
    <text x="36" y="58" fill="#62d7f7" font-family="Arial, Helvetica, sans-serif" font-size="24" font-weight="700">Manuell hinzufuegen</text>
    <text x="36" y="100" fill="#c9ced3" font-family="Arial, Helvetica, sans-serif" font-size="20">Wenn ein Sensor nicht erkannt wird:</text>
    <text x="36" y="134" fill="#e8eaed" font-family="Arial, Helvetica, sans-serif" font-size="20">Integration erneut hinzufuegen und Sensor auswaehlen.</text>
  </g>
</svg>
